Coordinates
version=1
nRows=13
nColumns=36
inDegrees=yes

Units are S.I. units (second, meters, Newtons, ...)
If the header above contains a line with 'inDegrees', this indicates whether rotational values are in degrees (yes) or radians (no).

endheader
time	pelvis_tilt	pelvis_list	pelvis_rotation	pelvis_tx	pelvis_ty	pelvis_tz	hip_flexion_r	hip_adduction_r	hip_rotation_r	knee_angle_r	knee_angle_r_beta	ankle_angle_r	subtalar_angle_r	mtp_angle_r	hip_flexion_l	hip_adduction_l	hip_rotation_l	knee_angle_l	knee_angle_l_beta	ankle_angle_l	subtalar_angle_l	mtp_angle_l	lumbar_extension	lumbar_bending	lumbar_rotation	arm_flex_r	arm_add_r	arm_rot_r	elbow_flex_r	pro_sup_r	arm_flex_l	arm_add_l	arm_rot_l	elbow_flex_l	pro_sup_l
      0.00000000	     -8.09006046	      1.32405782	     -4.79337632	      1.62195008	      0.96010953	      0.13943474	     13.45019924	     -0.02103577	      0.97625319	      9.06623123	      0.15823559	      5.32192692	     -7.98837322	     -6.37991002	      7.16358348	     -1.53074397	     -4.26481226	      7.16142606	      0.12499046	      9.08394365	      0.73551193	     -6.37991002	      1.23784695	     -1.08189493	    -10.37493674	     37.86433743	     -2.61872980	     52.41907926	    129.95510169	     73.48240611	     47.26808085	      7.16384437	     64.71111206	    124.84278399	     84.26848305
      0.01666670	     -7.33513656	      0.89246455	     -5.63543007	      1.63332850	      0.95993277	      0.14897396	     11.78714094	      0.98233607	      1.93802752	      8.06257432	      0.14071847	      6.13990065	     -7.24923257	     -6.74810057	      5.41299743	     -2.09447299	     -5.50397531	      6.32936542	      0.11046827	      9.13975451	      0.51095398	     -6.74810057	     -0.56289120	     -0.22473473	     -7.65001157	     39.24635064	     -4.31546391	     59.16228820	    136.24749958	     95.19787938	     47.64943407	      8.56766371	     62.86446744	    128.31075699	    102.76598737
      0.03333330	     -7.08531044	      0.73779392	     -6.46684046	      1.62398260	      0.96217612	      0.15427612	     11.74652773	      1.63459560	      2.99672269	      8.19528125	      0.14303464	      5.61704871	     -6.77562513	     -6.92523041	      4.69964717	     -2.46505952	     -6.30978943	      5.32099762	      0.09286893	      9.10747942	      1.10578319	     -6.92523041	     -1.06042038	      0.04647944	     -7.37566003	     39.10981892	     -2.22022607	     58.21314389	    136.20843199	    102.44747334	     47.91785222	      7.52631352	     61.60362367	    130.04717026	    106.33577057
      0.05000000	     -6.62831028	      0.58238613	     -6.42212901	      1.62661907	      0.96452566	      0.15753449	     11.27129183	      1.90353194	      3.09196988	      8.36738921	      0.14603849	      6.10110546	     -6.11227993	     -6.93939372	      4.17701208	     -2.78689946	     -6.63760025	      5.26309936	      0.09185841	      9.30315416	      1.31278909	     -6.93939372	     -1.83573603	      0.11654972	     -7.20053816	     38.77163533	     -1.00721801	     58.63428340	    135.27615896	    102.86182179	     48.01587800	      6.69500849	     61.64724134	    131.15911303	    106.22298166
      0.06666670	     -6.39505029	      0.57827994	     -6.62428614	      1.62170506	      0.96405091	      0.15979273	     11.34348155	      2.11878446	      3.44257869	      8.90514328	      0.15542407	      6.52064556	     -5.79452973	     -6.94481871	      4.30009650	     -3.05460701	     -6.75536219	      5.87221244	      0.10248944	      9.67141677	      1.07372884	     -6.94481871	     -2.47794658	     -0.02765499	     -6.76895803	     38.65917808	     -0.16808185	     59.07505732	    134.56280229	    103.05292839	     48.50205526	      6.46348431	     61.49708510	    131.57870887	    106.08794550
      0.08333330	     -6.18761275	      0.69689280	     -6.80885880	      1.62082380	      0.96166236	      0.15975083	     11.51267250	      2.10096443	      3.56065367	      9.65212931	      0.16846144	      7.03311178	     -5.30502212	     -7.08865931	      4.65114324	     -3.18693053	     -6.95937690	      6.88939294	      0.12024259	      9.94381532	      0.81707448	     -7.08865931	     -2.96811885	      0.05971248	     -7.08962557	     39.53840204	      0.83739369	     59.84672329	    133.37688477	    104.05053249	     49.02203827	      5.74239508	     60.93703186	    132.83632374	    103.82216306
      0.10000000	     -6.25792813	      0.87308938	     -6.95463844	      1.61573990	      0.95461256	      0.16260558	     12.06121775	      2.05101702	      3.59916671	     10.43285316	      0.18208764	      7.42188065	     -5.08355543	     -7.17988729	      5.48586299	     -3.32590874	     -7.07115037	      8.18818688	      0.14291082	     10.27932816	      0.45125668	     -7.17988729	     -3.14710107	     -0.14486506	     -6.96745477	     40.54986101	      1.52632050	     59.74943160	    133.50299495	    103.50092667	     50.52313150	      5.87390883	     60.38893723	    133.19481334	    101.93771900
      0.11666670	     -6.16985613	      1.05540078	     -7.07588857	      1.61859446	      0.95322512	      0.16579325	     12.30013913	      1.96657183	      3.68717517	     11.11198697	      0.19394076	      7.91853364	     -5.01463054	     -7.18351131	      6.10148576	     -3.43996497	     -7.34694060	      9.53464913	      0.16641102	     10.50803068	      0.14925456	     -7.18351131	     -3.33774876	     -0.40535720	     -6.71206737	     41.30634861	      1.99852373	     59.09753349	    133.52874327	    103.43220481	     51.42701396	      6.01602967	     60.03632049	    133.70687766	    101.77209649
      0.13333330	     -6.11973336	      1.25296046	     -7.16020677	      1.61797823	      0.95635763	      0.16595149	     12.41551029	      1.80536754	      3.46704556	     11.56636406	      0.20187114	      8.49926347	     -4.48670068	     -7.25372886	      6.69619515	     -3.47929020	     -7.61682289	     10.73886104	      0.18742848	     10.56946623	     -0.13322430	     -7.25372886	     -3.50170817	     -0.63993665	     -6.56230124	     41.51802693	      2.07421741	     58.70361925	    133.64163254	     98.66549996	     51.81245785	      6.00872556	     60.48076536	    133.89516471	     96.78671932
      0.15000000	     -6.12055739	      1.41798899	     -7.23295887	      1.61337714	      0.96387153	      0.16872280	     12.58375986	      1.75007804	      3.47175634	     11.98685428	      0.20921007	      8.82455227	     -4.35588161	     -7.30885869	      7.40563361	     -3.61167534	     -8.20714436	     11.87559428	      0.20726822	     10.61738765	     -0.06783630	     -7.30885869	     -3.99884979	     -0.93843407	     -6.25860389	     41.01923598	      1.64192140	     58.79352631	    133.75869464	    101.63475970	     51.77714253	      5.74674544	     61.47732645	    133.79984156	     97.82305449
      0.16666670	     -6.05135525	      1.58417337	     -7.29024216	      1.61282485	      0.95927299	      0.16919421	     12.67214486	      1.64981217	      3.19823201	     12.40269811	      0.21646792	      9.17191992	     -3.93974692	     -7.33082380	      8.10090217	     -3.72655682	     -8.66489533	     13.06541435	      0.22803450	     10.50108812	     -0.18298065	     -7.33082380	     -4.32206982	     -1.25379032	     -6.41239340	     41.00195385	      1.66496034	     58.68742943	    134.27103307	    100.35073347	     52.39735140	      5.62005060	     61.77024311	    133.75609132	     95.89868426
      0.18333330	     -5.79274198	      1.62907633	     -7.23055051	      1.61586041	      0.96245279	      0.17214357	     12.32938559	      1.67252209	      3.04004249	     12.50715399	      0.21829102	      9.37746418	     -3.75411191	     -7.33345256	      8.53756796	     -3.90815680	     -9.03547124	     14.12631561	      0.24655072	     10.19169770	     -0.47164574	     -7.33345256	     -4.74267078	     -1.41672612	     -6.50584472	     40.66686372	      1.45528903	     59.05083571	    134.83042098	    100.51540918	     52.44209221	      5.46440646	     61.79807949	    133.59416104	     95.94861201
      0.20000000	     -5.39468490	      1.61829472	     -7.34242734	      1.62317515	      0.96366995	      0.17812938	     11.60231270	      1.79426934	      3.08907873	     12.36668096	      0.21583930	      9.58154068	     -3.58776785	     -7.33476195	      8.64392699	     -4.16280979	     -9.47501288	     15.06651861	      0.26296036	      9.71987609	     -0.78287334	     -7.33476195	     -4.96916343	     -1.62718239	     -6.53177161	     39.71023148	      1.55999947	     59.39726248	    135.13457750	    100.61210805	     51.88419067	      5.18453906	     61.84152705	    133.45433086	     95.95157798
